<svg width="34" height="34" viewBox="0 0 34 34" fill="none" xmlns="http://www.w3.org/2000/svg">
<path fill-rule="evenodd" clip-rule="evenodd" d="M17.0038 0.7143L17.0001 0.714294C8.00572 0.714294 0.714355 8.00566 0.714355 17C0.714355 25.9944 8.00572 33.2857 17.0001 33.2857C25.9944 33.2857 33.2858 25.9944 33.2858 17C33.2858 8.0069 25.9964 0.716319 17.0038 0.7143ZM20.1402 30.2063C23.8164 29.3355 26.9142 26.9694 28.7559 23.7857H22.9426C22.3987 25.8602 21.6545 27.574 20.9026 28.9369C20.6465 29.4012 20.3897 29.8241 20.1402 30.2063ZM23.4944 21.0714H29.9502C30.3539 19.7862 30.5715 18.4185 30.5715 17C30.5715 15.5815 30.3539 14.2139 29.9502 12.9286H23.4944C23.6791 14.1831 23.7858 15.5398 23.7858 17C23.7858 18.4602 23.6791 19.8169 23.4944 21.0714ZM20.7474 12.9286C20.9509 14.1632 21.0715 15.5193 21.0715 17C21.0715 18.4807 20.9509 19.8369 20.7474 21.0714H13.2528C13.0493 19.8369 12.9286 18.4807 12.9286 17C12.9286 15.5193 13.0493 14.1632 13.2528 12.9286H20.7474ZM22.9426 10.2143H28.7559C26.9142 7.03062 23.8164 4.66452 20.1402 3.79369C20.3897 4.17588 20.6465 4.59886 20.9026 5.06315C21.6545 6.42596 22.3987 8.13983 22.9426 10.2143ZM13.86 3.79369C10.1837 4.66452 7.08591 7.03062 5.24426 10.2143H11.0576C11.6015 8.13983 12.3456 6.42596 13.0975 5.06315C13.3537 4.59886 13.6104 4.17588 13.86 3.79369ZM13.876 10.2143C14.3343 8.67885 14.9071 7.40193 15.4741 6.37436C16.0217 5.38175 16.5659 4.61834 17.0001 4.07779C17.4342 4.61834 17.9784 5.38175 18.5261 6.37436C19.093 7.40193 19.6658 8.67885 20.1242 10.2143H13.876ZM10.5057 12.9286H4.04994C3.64626 14.2139 3.42864 15.5815 3.42864 17C3.42864 18.4185 3.64626 19.7862 4.04994 21.0714H10.5057C10.321 19.8169 10.2144 18.4602 10.2144 17C10.2144 15.5398 10.321 14.1831 10.5057 12.9286ZM11.0576 23.7857H5.24426C7.08591 26.9694 10.1837 29.3355 13.86 30.2063C13.6104 29.8241 13.3537 29.4012 13.0975 28.9369C12.3456 27.574 11.6015 25.8602 11.0576 23.7857ZM13.876 23.7857H20.1242C19.6658 25.3212 19.093 26.5981 18.5261 27.6257C17.9784 28.6183 17.4342 29.3817 17.0001 29.9222C16.5659 29.3817 16.0217 28.6183 15.4741 27.6257C14.9071 26.5981 14.3343 25.3212 13.876 23.7857Z" fill="#1D94A4"/>
</svg>
